<svg width="10" height="20" viewBox="0 0 10 20" fill="none" xmlns="http://www.w3.org/2000/svg">
<path fill-rule="evenodd" clip-rule="evenodd" d="M0.7 14.1932C0.313401 14.1932 0 13.8798 0 13.4932V8.42445C0 8.20844 0.0997309 8.00452 0.270241 7.8719L4.57024 4.52746C4.82302 4.33085 5.17698 4.33085 5.42976 4.52746L9.72976 7.8719C9.90027 8.00452 10 8.20844 10 8.42445V13.4932C10 13.8798 9.6866 14.1932 9.3 14.1932L6.7 14.1932C6.3134 14.1932 6 13.8798 6 13.4932V10.8932C6 10.5066 5.6866 10.1932 5.3 10.1932H4.7C4.3134 10.1932 4 10.5066 4 10.8932V13.4932C4 13.8798 3.6866 14.1932 3.3 14.1932L0.7 14.1932Z" fill="#27AE60"/>
</svg>
